<?xml version="1.0" standalone="no"?>
<!DOCTYPE svg PUBLIC "-//W3C//DTD SVG 20010904//EN"
 "http://www.w3.org/TR/2001/REC-SVG-20010904/DTD/svg10.dtd">
<svg version="1.0" xmlns="http://www.w3.org/2000/svg"
 width="3940.000000pt" height="796.000000pt" viewBox="0 0 3940.000000 796.000000"
 preserveAspectRatio="xMidYMid meet">

<g transform="translate(0.000000,796.000000) scale(0.100000,-0.100000)"
fill="#000000" stroke="none">
<path d="M406 6878 c-3 -13 -6 -1293 -6 -2845 0 -1875 -3 -2823 -10 -2823 -20
0 -9 -27 15 -38 20 -9 528 -12 2019 -12 1683 0 1995 2 2005 14 8 9 11 70 9
197 l-3 184 -1802 5 c-1244 3 -1805 8 -1813 16 -7 7 -10 358 -10 1130 0 1044
1 1120 17 1132 13 9 366 12 1685 12 1327 0 1668 3 1669 13 3 70 -4 344 -10
350 -4 4 -755 8 -1670 10 -1633 2 -1663 2 -1677 21 -12 17 -14 186 -14 1122 0
871 3 1105 13 1111 6 4 800 10 1762 13 l1750 5 3 170 c2 94 0 185 -3 203 l-6
32 -1958 0 -1959 0 -6 -22z"/>
<path d="M5385 6878 c-3 -13 -4 -1303 -3 -2868 l3 -2845 169 -3 c93 -1 173 1
178 6 9 9 11 5692 2 5716 -5 14 -31 16 -175 16 -167 0 -169 0 -174 -22z"/>
<path d="M29676 6743 c-481 -3 -622 -6 -628 -16 -4 -6 -8 -1259 -8 -2782 0
-2142 3 -2774 12 -2783 9 -9 170 -12 664 -12 570 0 653 2 664 15 17 21 7 281
-15 395 -30 158 -65 282 -95 345 -11 23 -20 48 -20 56 0 8 -9 25 -20 39 -11
14 -20 29 -20 35 0 9 -103 226 -121 255 -5 8 -12 22 -15 30 -9 22 -63 149 -84
195 -41 91 -61 156 -58 187 3 29 7 33 35 36 30 3 35 -2 123 -135 89 -133 105
-153 124 -153 12 0 -2 68 -24 115 -30 65 -71 168 -80 200 -9 35 -44 122 -71
180 -10 22 -21 52 -25 68 -3 15 -15 44 -25 64 -10 21 -19 43 -19 50 0 8 -11
36 -25 64 -30 59 -22 89 24 89 65 0 157 -106 246 -283 78 -152 102 -191 149
-241 34 -37 64 -44 59 -15 -4 24 -31 150 -52 244 -46 200 -53 232 -63 280 -5
28 -17 79 -25 115 -53 223 -59 298 -27 331 20 20 23 20 52 5 75 -39 104 -101
192 -406 10 -36 30 -103 43 -150 14 -47 35 -119 47 -160 12 -41 25 -79 30 -85
4 -5 11 -27 15 -47 8 -44 25 -61 57 -56 l23 3 7 250 c6 237 25 652 33 723 5
43 12 52 38 52 34 0 122 -95 147 -159 22 -58 25 -85 60 -620 19 -287 23 -322
49 -405 49 -154 109 -255 172 -287 39 -20 41 -20 72 -2 33 20 103 100 174 199
100 140 267 262 341 250 19 -3 40 -10 48 -17 23 -19 17 -82 -12 -124 -14 -21
-30 -48 -35 -59 -5 -12 -23 -41 -39 -66 -17 -25 -37 -58 -45 -75 -9 -16 -29
-50 -45 -75 -16 -25 -38 -61 -50 -80 -11 -19 -30 -51 -42 -72 -44 -71 -93
-153 -97 -163 -2 -5 -15 -24 -28 -41 -12 -17 -23 -34 -23 -37 0 -4 -20 -36
-45 -73 -25 -36 -45 -68 -45 -71 0 -3 -20 -36 -44 -72 -77 -117 -106 -164
-106 -174 0 -6 -6 -18 -14 -26 -54 -60 -108 -387 -71 -425 15 -14 78 -16 653
-16 561 0 640 2 660 16 l22 15 0 2763 c0 2194 -3 2766 -12 2779 -12 16 -62 17
-661 18 -356 0 -653 -3 -659 -7 -23 -14 12 -238 58 -374 8 -25 21 -65 28 -90
12 -43 42 -110 146 -325 46 -97 81 -172 123 -265 11 -25 26 -58 34 -75 8 -16
25 -62 38 -102 20 -64 21 -74 8 -93 -27 -38 -56 -25 -101 43 -176 269 -233
319 -167 148 14 -36 30 -75 36 -85 6 -10 19 -42 29 -70 10 -28 30 -82 45 -121
15 -38 35 -93 45 -121 10 -28 23 -60 29 -70 6 -10 17 -37 25 -59 8 -22 21 -60
30 -85 9 -25 21 -53 26 -62 22 -39 0 -68 -52 -68 -35 0 -146 122 -187 206 -19
38 -43 81 -53 96 -10 14 -18 31 -18 36 0 27 -142 232 -161 232 -20 0 -20 -32
-1 -97 11 -38 23 -86 27 -108 3 -22 18 -89 31 -150 14 -60 34 -150 44 -200 10
-49 30 -139 44 -200 13 -60 30 -143 37 -184 12 -69 11 -74 -6 -87 -31 -23 -48
-17 -97 34 -53 55 -93 128 -108 196 -6 27 -16 58 -22 69 -6 11 -17 48 -25 81
-7 33 -18 65 -22 70 -5 6 -14 38 -21 71 -7 33 -16 65 -20 70 -5 6 -17 44 -28
85 -45 167 -77 243 -106 248 -29 6 -36 -16 -36 -118 1 -140 -30 -849 -38 -890
-10 -48 -30 -48 -84 0 -69 60 -104 130 -122 241 -24 147 -26 178 -36 444 -8
243 -18 320 -60 460 -36 120 -85 233 -124 280 -19 24 -32 30 -63 30 -22 0 -52
-8 -66 -18 -26 -16 -96 -102 -177 -214 -57 -79 -141 -156 -214 -195 -85 -47
-116 -48 -150 -7 -33 39 -30 51 47 185 28 48 39 67 107 181 19 32 37 63 40 68
3 6 41 70 85 143 44 73 89 147 99 165 11 17 58 91 104 162 46 72 95 146 107
165 22 35 55 96 95 178 11 24 23 64 27 89 5 38 3 48 -12 59 -11 8 -24 13 -29
12 -6 -2 -290 -4 -630 -5z"/>
<path d="M21425 6399 c-44 -10 -102 -18 -130 -19 -27 -1 -67 -4 -88 -8 l-38
-7 1 -569 c1 -520 -1 -570 -16 -587 -16 -18 -40 -19 -420 -19 -221 0 -409 -3
-418 -6 -14 -5 -16 -28 -16 -145 0 -126 2 -139 19 -149 13 -6 163 -10 419 -10
359 0 401 -2 413 -17 12 -13 15 -251 19 -1422 l6 -1406 22 -74 c12 -41 22 -88
22 -105 0 -17 9 -50 19 -72 10 -23 22 -56 26 -74 6 -29 28 -75 81 -169 27 -48
119 -160 162 -197 56 -48 174 -124 202 -131 14 -3 41 -14 61 -25 19 -10 61
-23 92 -28 31 -6 74 -18 94 -27 32 -14 79 -17 303 -17 249 0 269 1 324 22 33
12 71 22 85 22 14 0 50 11 79 25 30 14 61 25 70 25 10 0 40 12 67 25 28 14 55
25 62 25 22 0 83 42 83 57 0 8 -9 26 -20 40 -11 14 -20 33 -20 42 0 9 -11 37
-25 63 -14 26 -25 56 -25 68 0 11 -11 32 -25 46 l-24 24 -38 -20 c-21 -11 -45
-20 -53 -20 -8 0 -28 -9 -45 -20 -16 -11 -41 -20 -55 -20 -14 0 -45 -10 -70
-21 -25 -11 -79 -24 -120 -30 -41 -5 -91 -14 -110 -19 -50 -14 -194 -12 -270
5 -36 8 -80 14 -97 15 -28 0 -110 31 -163 61 -8 5 -31 18 -51 28 -92 50 -225
252 -244 371 -4 25 -16 78 -26 119 -18 71 -19 136 -19 1441 0 1049 3 1369 12
1378 9 9 172 12 673 12 363 0 666 4 673 8 9 7 12 44 10 153 l-3 144 -669 3
c-474 1 -673 5 -683 13 -11 9 -13 120 -13 604 0 463 -3 595 -12 602 -8 5 -43
2 -93 -8z"/>
<path d="M8495 5240 c-60 -4 -135 -14 -165 -23 -30 -8 -80 -19 -110 -23 -30
-3 -67 -13 -82 -20 -15 -8 -51 -19 -79 -25 -29 -6 -66 -20 -83 -30 -17 -10
-39 -19 -50 -19 -10 0 -39 -11 -65 -24 -25 -13 -57 -29 -71 -35 -14 -6 -47
-25 -75 -41 -27 -16 -59 -33 -71 -38 -11 -6 -41 -24 -65 -41 -24 -18 -55 -39
-69 -48 -100 -67 -367 -324 -422 -406 -13 -19 -39 -59 -59 -88 -73 -111 -99
-153 -99 -164 0 -7 -6 -18 -14 -24 -8 -7 -18 -25 -21 -41 -4 -16 -15 -40 -25
-53 -10 -13 -22 -37 -26 -53 -3 -16 -14 -42 -24 -59 -10 -16 -20 -46 -24 -66
-3 -19 -15 -53 -26 -74 -11 -22 -20 -53 -20 -71 0 -17 -9 -57 -20 -90 -12 -32
-25 -104 -30 -159 -6 -55 -15 -127 -20 -160 -13 -77 -13 -311 0 -395 6 -36 15
-112 20 -170 5 -58 18 -131 30 -162 11 -32 20 -70 20 -85 0 -16 9 -47 20 -71
10 -23 22 -59 26 -80 3 -20 13 -48 21 -60 8 -13 21 -45 29 -72 8 -26 21 -53
29 -60 8 -7 15 -20 15 -29 0 -10 7 -26 15 -37 8 -10 24 -37 35 -59 32 -62 81
-139 127 -200 13 -16 31 -41 40 -54 57 -79 273 -284 363 -344 14 -9 43 -29 65
-45 22 -15 54 -35 70 -44 17 -8 53 -28 80 -43 28 -16 64 -34 80 -42 17 -8 46
-22 65 -32 19 -10 50 -22 69 -26 19 -4 48 -16 65 -26 17 -10 43 -19 57 -19 15
0 47 -9 72 -20 25 -11 76 -25 114 -30 37 -5 93 -17 123 -26 47 -15 105 -17
385 -18 311 0 335 1 412 22 45 12 97 22 115 22 18 0 65 12 103 25 39 14 80 25
92 25 11 0 45 11 75 25 29 14 62 25 74 25 11 0 29 7 40 15 10 8 37 20 59 26
22 6 52 20 66 30 15 10 33 19 41 19 7 0 30 11 50 25 20 14 43 25 51 25 8 0 22
9 32 20 10 11 24 20 31 20 7 0 26 11 42 25 17 14 35 25 40 25 6 0 22 10 37 23
14 12 43 36 65 52 105 78 228 197 277 268 27 38 27 39 8 53 -24 15 -44 31
-151 118 -45 36 -86 66 -91 66 -5 0 -29 -23 -52 -51 -45 -53 -221 -197 -292
-239 -23 -14 -57 -35 -75 -46 -17 -12 -43 -25 -55 -29 -13 -4 -35 -16 -48 -26
-13 -11 -34 -19 -46 -19 -12 0 -34 -9 -48 -20 -14 -11 -40 -23 -59 -27 -18 -3
-49 -14 -68 -23 -19 -10 -55 -21 -80 -25 -25 -4 -58 -14 -75 -23 -16 -8 -63
-18 -104 -23 -40 -5 -97 -16 -125 -26 -44 -16 -88 -18 -326 -18 -235 0 -282 3
-325 17 -27 10 -77 22 -110 27 -68 10 -173 43 -227 72 -20 10 -43 19 -50 19
-25 0 -178 83 -284 154 -192 128 -397 359 -486 546 -7 14 -17 32 -24 40 -6 8
-17 33 -24 55 -7 22 -21 53 -31 70 -11 16 -19 40 -19 53 0 12 -8 39 -19 60
-10 20 -22 59 -25 86 -4 26 -16 75 -27 108 -21 68 -26 187 -7 206 9 9 426 12
1814 12 1615 0 1803 2 1814 15 22 27 26 395 6 528 -9 59 -16 129 -16 156 0 26
-11 85 -25 131 -14 46 -25 95 -25 109 0 14 -7 39 -15 54 -8 16 -19 47 -25 70
-6 23 -19 60 -29 82 -11 22 -38 78 -60 125 -70 146 -156 271 -282 406 -54 59
-261 234 -276 234 -6 0 -45 24 -114 71 -15 10 -39 21 -53 25 -14 3 -30 12 -37
20 -6 8 -30 19 -52 25 -23 6 -52 19 -65 30 -14 10 -34 19 -46 19 -12 0 -39 9
-61 20 -21 11 -62 24 -92 29 -29 6 -63 16 -76 23 -12 6 -58 17 -102 24 -44 7
-111 19 -150 27 -83 18 -445 28 -610 17z m335 -330 c52 -6 145 -15 207 -20 62
-6 138 -20 169 -30 31 -11 69 -20 83 -20 14 0 50 -11 79 -25 30 -14 60 -25 68
-25 8 0 36 -11 62 -25 26 -14 54 -25 64 -25 9 0 20 -5 24 -11 3 -6 25 -19 48
-30 77 -36 200 -126 299 -218 40 -37 137 -152 172 -205 50 -73 135 -231 135
-249 0 -7 7 -25 16 -42 9 -16 23 -52 30 -80 7 -27 20 -68 28 -90 8 -22 15 -53
16 -68 0 -16 9 -73 20 -127 24 -119 30 -261 11 -284 -12 -14 -172 -16 -1646
-16 -1448 0 -1634 2 -1645 15 -17 21 -7 177 14 227 9 20 19 63 22 94 4 32 15
72 25 89 9 16 20 47 23 68 4 21 16 53 27 70 10 18 19 40 19 50 0 11 8 31 19
45 10 15 22 38 26 52 4 14 13 32 20 40 7 8 21 31 31 52 28 54 91 146 148 213
64 77 216 223 239 231 9 3 17 10 17 15 0 5 12 14 27 20 15 6 34 17 43 25 23
23 104 74 116 74 6 0 22 8 35 19 13 10 41 23 61 30 20 7 42 19 48 27 7 7 22
14 34 14 11 0 44 12 71 25 28 14 59 25 71 25 11 0 47 9 78 20 32 11 103 24
159 31 56 6 131 14 167 19 94 11 115 11 220 0z"/>
<path d="M25455 5240 c-66 -4 -138 -14 -160 -22 -22 -9 -67 -18 -100 -22 -33
-4 -73 -14 -90 -22 -16 -7 -51 -18 -78 -24 -26 -5 -64 -19 -85 -30 -20 -11
-46 -20 -58 -20 -12 0 -32 -8 -45 -19 -13 -10 -41 -23 -61 -30 -20 -7 -42 -19
-48 -27 -7 -7 -20 -14 -29 -14 -10 0 -32 -11 -51 -25 -19 -14 -38 -25 -43 -25
-5 0 -22 -10 -37 -22 -15 -13 -40 -31 -56 -40 -55 -33 -69 -43 -129 -93 -85
-70 -233 -219 -294 -295 -71 -88 -79 -100 -104 -139 -12 -19 -30 -46 -40 -60
-9 -14 -26 -45 -37 -68 -11 -23 -25 -45 -30 -48 -4 -3 -14 -22 -21 -43 -6 -20
-17 -44 -24 -52 -8 -8 -17 -28 -21 -45 -4 -16 -18 -50 -31 -74 -12 -24 -23
-52 -23 -63 0 -10 -8 -35 -19 -56 -10 -20 -21 -57 -25 -82 -4 -25 -15 -72 -25
-105 -11 -33 -24 -105 -30 -160 -6 -55 -16 -136 -22 -180 -26 -191 24 -659 93
-850 5 -16 17 -50 25 -75 8 -25 23 -63 34 -85 10 -22 19 -45 19 -51 0 -11 55
-121 100 -199 16 -27 33 -59 38 -71 6 -11 45 -68 88 -125 77 -102 305 -339
326 -339 6 0 18 -7 27 -15 30 -29 106 -85 115 -85 5 0 17 -7 27 -16 20 -18 63
-43 125 -73 23 -10 45 -24 48 -29 3 -6 21 -14 39 -17 17 -4 44 -16 59 -26 14
-11 34 -19 45 -19 10 0 41 -12 68 -25 28 -14 61 -25 75 -25 14 0 45 -10 70
-21 24 -11 65 -22 90 -25 25 -3 81 -15 125 -27 74 -20 103 -22 410 -21 306 0
335 1 405 21 41 12 101 24 133 27 32 4 71 13 86 20 14 8 53 19 85 25 32 6 64
15 70 20 6 5 38 17 71 26 33 10 67 24 76 31 8 8 22 14 30 14 13 0 97 37 149
66 14 7 40 21 59 30 18 8 45 23 60 33 14 10 46 31 71 47 41 26 85 58 119 86 7
6 34 27 60 46 89 67 247 240 239 261 -2 5 -23 25 -48 45 -67 54 -91 74 -135
112 -22 19 -47 36 -56 39 -11 4 -53 -31 -127 -105 -61 -60 -117 -110 -125
-110 -8 0 -21 -7 -28 -16 -8 -9 -32 -28 -54 -43 -37 -24 -64 -38 -140 -77 -16
-8 -37 -19 -45 -25 -8 -5 -26 -14 -40 -20 -14 -6 -48 -22 -76 -35 -28 -13 -58
-24 -68 -24 -9 0 -33 -9 -53 -20 -21 -11 -47 -20 -58 -20 -11 0 -51 -12 -90
-25 -38 -14 -84 -25 -101 -25 -16 0 -66 -10 -110 -22 -73 -21 -100 -23 -354
-23 -258 0 -279 1 -344 23 -37 12 -84 22 -102 22 -19 0 -52 9 -72 19 -21 11
-56 23 -77 27 -22 4 -49 13 -60 21 -11 7 -38 18 -60 24 -21 6 -50 19 -63 30
-14 10 -31 19 -38 19 -7 0 -28 10 -47 23 -19 12 -53 33 -76 47 -24 14 -55 35
-71 47 -15 13 -32 23 -37 23 -23 0 -246 225 -311 315 -39 53 -92 141 -116 192
-9 17 -20 34 -26 38 -5 3 -14 25 -21 48 -6 23 -17 49 -24 57 -8 9 -19 37 -25
63 -6 27 -17 58 -25 70 -8 12 -17 42 -20 67 -4 25 -15 72 -25 105 -23 76 -34
199 -20 225 11 20 35 20 1813 20 991 0 1807 4 1814 8 7 4 16 68 24 167 10 138
10 179 -4 300 -9 77 -19 174 -23 215 -3 41 -15 100 -25 130 -10 30 -19 68 -19
85 -1 16 -8 48 -16 70 -9 22 -23 65 -31 95 -8 30 -21 62 -29 71 -8 8 -14 22
-14 30 0 8 -18 48 -40 89 -22 41 -48 93 -58 115 -11 22 -27 46 -36 54 -9 7
-16 17 -16 22 0 33 -228 289 -315 354 -22 16 -42 32 -45 35 -18 19 -91 70 -98
70 -5 0 -15 6 -21 14 -11 13 -37 28 -126 72 -16 8 -37 19 -45 25 -8 5 -31 16
-50 25 -19 8 -53 23 -75 33 -40 19 -76 32 -150 56 -134 44 -178 55 -246 64
-42 6 -89 15 -105 22 -29 11 -335 29 -454 27 -36 -1 -119 -4 -185 -8z m335
-330 c275 -26 320 -32 375 -49 33 -11 78 -22 100 -25 22 -3 58 -15 80 -26 21
-11 47 -20 56 -20 15 0 99 -37 139 -61 8 -5 33 -18 55 -30 66 -33 156 -91 190
-122 11 -9 47 -41 79 -70 70 -62 246 -272 246 -294 0 -5 11 -24 25 -43 14 -19
25 -40 25 -48 0 -8 9 -26 19 -41 10 -14 24 -45 30 -68 6 -23 16 -45 21 -48 5
-3 14 -31 20 -63 7 -31 18 -69 26 -83 7 -15 18 -66 24 -114 6 -48 17 -115 25
-149 21 -86 20 -194 -2 -218 -15 -17 -80 -18 -1649 -18 -1295 0 -1634 3 -1641
13 -14 21 -4 185 13 225 9 20 20 64 25 98 4 33 17 80 28 105 12 24 21 55 21
67 0 13 8 36 19 50 10 15 22 38 25 52 15 54 95 200 170 311 63 93 251 286 336
344 36 25 84 58 108 75 24 16 57 37 75 45 18 8 39 19 47 24 33 20 123 61 134
61 6 0 29 9 51 20 21 11 62 24 91 29 29 6 69 17 89 25 20 9 85 21 143 27 59 7
136 15 172 19 95 10 106 10 210 0z"/>
<path d="M17450 5234 c-19 -2 -66 -11 -105 -19 -38 -7 -99 -17 -135 -21 -36
-3 -87 -15 -113 -25 -26 -11 -60 -19 -75 -19 -15 0 -46 -9 -67 -20 -22 -12
-60 -25 -85 -31 -24 -6 -51 -16 -60 -24 -8 -7 -34 -18 -56 -24 -23 -6 -47 -17
-53 -25 -7 -8 -24 -17 -38 -21 -15 -3 -38 -15 -51 -26 -14 -10 -30 -19 -38
-19 -7 0 -25 -11 -41 -24 -15 -13 -38 -26 -50 -30 -13 -4 -23 -12 -23 -17 0
-5 -8 -13 -18 -17 -19 -7 -30 -15 -145 -106 -75 -59 -255 -242 -263 -268 -3
-10 -9 -18 -14 -18 -4 0 -17 -15 -28 -32 -12 -18 -34 -51 -51 -73 -17 -22 -37
-53 -46 -70 -9 -16 -29 -52 -45 -80 -16 -27 -35 -61 -41 -75 -6 -14 -22 -46
-35 -71 -13 -26 -24 -53 -24 -60 0 -8 -12 -36 -25 -64 -14 -27 -25 -60 -25
-73 0 -12 -8 -39 -19 -60 -10 -20 -21 -60 -25 -89 -4 -29 -13 -71 -22 -95 -9
-25 -22 -128 -31 -248 -13 -174 -14 -234 -3 -395 6 -104 19 -217 27 -250 9
-33 21 -89 28 -125 7 -36 23 -91 34 -122 12 -32 21 -65 21 -75 0 -10 7 -27 16
-38 8 -11 19 -38 25 -60 6 -22 17 -47 24 -55 7 -8 18 -32 24 -52 7 -20 19 -42
27 -48 7 -7 14 -21 14 -30 0 -10 11 -32 25 -48 14 -17 25 -34 25 -38 0 -15 84
-139 139 -207 36 -44 279 -286 324 -324 15 -12 47 -34 73 -50 25 -15 57 -38
72 -49 15 -12 37 -24 50 -28 12 -4 22 -11 22 -16 0 -4 18 -15 39 -23 22 -9 42
-21 45 -26 4 -5 23 -15 44 -22 20 -6 48 -20 61 -30 13 -11 32 -19 43 -19 10 0
41 -11 68 -25 27 -14 59 -25 70 -25 11 0 38 -9 58 -19 21 -11 60 -22 87 -26
28 -4 78 -15 112 -25 102 -31 396 -46 618 -31 111 7 203 18 228 27 23 9 70 20
104 25 35 5 80 18 100 29 21 11 46 20 57 20 10 0 42 11 70 24 110 51 203 98
241 121 22 13 56 33 76 44 19 11 41 27 48 35 8 9 18 16 23 16 6 0 20 9 32 19
11 11 46 41 76 68 77 67 186 177 246 248 50 59 114 152 114 165 0 9 47 30 66
30 13 0 15 -51 14 -401 -1 -326 1 -403 12 -410 7 -5 91 -9 185 -9 171 0 173 0
178 22 3 13 4 919 3 2013 l-3 1990 -179 3 c-99 1 -184 -2 -188 -6 -5 -5 -9
-193 -8 -421 0 -357 -1 -411 -14 -411 -32 0 -65 24 -80 59 -54 125 -274 360
-451 481 -20 14 -49 35 -65 48 -15 12 -33 22 -40 22 -7 0 -25 11 -42 25 -16
14 -38 25 -48 25 -9 0 -23 7 -30 14 -6 8 -28 20 -48 27 -20 7 -50 20 -67 30
-16 11 -39 19 -50 19 -11 0 -42 12 -70 25 -27 14 -62 25 -77 25 -15 0 -49 8
-75 19 -26 10 -77 22 -113 26 -36 3 -94 14 -130 22 -63 15 -380 26 -460 17z
m450 -370 c36 -8 100 -19 142 -25 42 -5 96 -18 120 -29 24 -11 54 -20 68 -20
14 0 39 -9 57 -19 17 -11 47 -23 67 -26 19 -4 40 -13 46 -21 7 -7 28 -18 48
-25 20 -7 48 -20 62 -28 14 -9 32 -21 41 -26 69 -41 157 -107 224 -168 116
-104 211 -213 270 -306 6 -9 20 -31 33 -48 12 -17 22 -35 22 -41 0 -5 8 -20
19 -33 10 -13 22 -35 26 -49 4 -14 16 -36 26 -49 11 -13 19 -31 19 -41 0 -9
11 -38 25 -64 14 -26 25 -57 25 -69 0 -12 9 -41 20 -64 10 -23 22 -64 25 -90
4 -26 15 -77 25 -113 35 -124 33 -616 -3 -700 -8 -19 -17 -58 -21 -87 -4 -29
-15 -71 -26 -95 -11 -24 -20 -52 -20 -63 0 -11 -11 -42 -25 -70 -13 -27 -25
-57 -25 -66 0 -9 -8 -27 -19 -40 -10 -13 -22 -35 -26 -48 -4 -12 -18 -39 -31
-58 -13 -20 -24 -40 -24 -44 0 -5 -14 -28 -30 -51 -17 -24 -38 -54 -47 -68
-38 -57 -154 -188 -203 -230 -29 -25 -60 -52 -69 -60 -48 -44 -189 -136 -257
-169 -23 -11 -45 -24 -48 -29 -3 -6 -21 -14 -39 -17 -17 -4 -45 -15 -62 -25
-16 -10 -46 -21 -65 -25 -19 -4 -52 -16 -72 -26 -21 -11 -50 -19 -67 -19 -16
0 -58 -9 -93 -20 -138 -45 -647 -45 -773 -1 -32 12 -75 21 -95 21 -19 0 -49 9
-67 19 -17 11 -49 23 -70 27 -20 4 -51 15 -68 26 -16 10 -37 18 -46 18 -8 0
-30 11 -49 25 -19 14 -40 25 -48 25 -7 0 -28 10 -45 23 -38 26 -62 41 -102 63
-16 9 -37 24 -46 33 -9 9 -31 27 -49 41 -100 77 -293 287 -340 371 -8 14 -25
44 -38 65 -53 91 -92 166 -92 177 0 7 -11 33 -25 59 -14 26 -25 57 -25 68 0
12 -9 40 -19 63 -10 23 -24 75 -30 116 -6 40 -16 82 -22 93 -29 55 -29 607 0
681 6 16 16 61 22 100 6 40 20 91 30 114 10 23 19 51 19 63 0 12 9 38 19 58
11 20 34 69 51 107 17 39 35 77 40 85 5 8 17 28 25 43 82 146 306 396 426 475
15 9 55 36 90 60 35 23 67 42 72 42 5 0 20 9 34 20 14 11 34 20 43 20 10 0 23
7 30 15 7 8 34 21 61 29 27 8 59 22 71 30 12 9 33 16 45 16 12 0 45 9 74 20
28 11 85 25 127 31 43 6 100 17 127 24 74 20 420 20 505 -1z"/>
<path d="M11323 5154 c3 -20 13 -44 22 -54 8 -9 15 -23 15 -30 0 -12 34 -96
80 -195 10 -22 22 -51 25 -65 4 -14 13 -34 20 -45 6 -11 18 -38 25 -60 7 -22
21 -54 31 -71 11 -17 19 -40 19 -51 0 -11 8 -31 18 -44 11 -13 22 -37 26 -54
4 -16 15 -48 25 -70 11 -22 31 -69 46 -105 15 -36 38 -88 51 -116 13 -28 24
-57 24 -65 0 -8 9 -27 20 -44 11 -16 20 -37 20 -46 0 -9 11 -37 25 -63 14 -26
25 -52 25 -59 0 -7 11 -33 25 -59 14 -26 25 -55 25 -65 0 -10 9 -29 20 -43 11
-14 20 -34 20 -45 0 -11 11 -38 25 -60 13 -22 25 -47 25 -56 0 -9 11 -37 25
-63 14 -26 25 -55 25 -64 0 -9 9 -32 20 -50 11 -18 20 -38 20 -46 0 -7 11 -34
25 -60 14 -26 25 -52 25 -59 0 -7 11 -32 24 -57 13 -25 27 -59 30 -77 4 -17
14 -37 22 -44 8 -6 14 -19 14 -29 0 -9 11 -38 25 -64 14 -26 25 -53 25 -60 0
-7 11 -34 25 -60 14 -26 25 -53 25 -59 0 -7 8 -28 19 -47 10 -19 23 -51 30
-71 6 -20 20 -53 31 -74 11 -22 20 -47 20 -56 0 -9 8 -27 19 -40 10 -13 21
-40 25 -60 4 -21 13 -42 21 -49 7 -6 17 -26 21 -43 3 -18 17 -52 30 -77 13
-25 24 -52 24 -60 0 -8 9 -28 20 -45 11 -16 20 -37 20 -45 0 -8 11 -36 25 -62
14 -26 25 -52 25 -59 0 -7 11 -36 25 -66 14 -29 36 -77 50 -106 14 -30 25 -60
25 -68 0 -8 9 -29 20 -47 11 -18 20 -40 20 -50 0 -9 8 -31 19 -47 10 -17 24
-48 31 -70 7 -22 21 -53 31 -70 11 -16 19 -40 19 -51 0 -12 8 -32 19 -45 10
-13 21 -40 25 -60 4 -21 13 -42 21 -49 7 -6 17 -26 20 -43 4 -18 13 -42 21
-54 14 -23 18 -23 219 -23 l205 0 24 39 c14 22 28 52 32 68 4 15 18 48 31 72
12 24 23 51 23 60 0 9 9 30 20 46 11 17 20 37 20 45 0 8 11 36 25 62 14 26 25
54 25 63 0 9 9 33 19 53 35 66 69 146 77 177 4 17 12 37 20 45 7 8 16 29 20
45 4 17 18 50 31 74 12 24 23 51 23 59 0 8 8 29 19 46 10 17 22 42 26 56 3 14
15 43 25 65 35 78 69 160 76 185 3 14 12 32 19 40 7 8 18 33 24 55 6 22 18 49
26 59 8 11 15 27 15 36 0 10 11 38 25 64 14 26 25 52 25 59 0 7 11 33 25 59
14 26 25 53 25 60 0 7 11 35 25 62 14 27 25 57 25 66 0 10 6 23 14 29 8 7 18
27 22 44 3 18 17 52 30 77 13 25 24 51 24 58 0 7 11 34 25 60 14 26 25 54 25
62 0 8 9 29 20 45 11 17 20 37 20 45 0 8 11 36 25 62 14 26 25 53 25 60 0 7
11 34 25 60 14 26 25 54 25 63 0 9 9 28 20 42 11 14 20 33 20 43 0 9 11 38 25
64 14 26 25 53 25 60 0 7 11 34 25 60 14 26 25 53 25 61 0 8 11 35 25 61 14
26 25 53 25 60 0 7 11 34 25 60 14 26 25 55 25 64 0 10 6 23 14 29 8 7 18 27
22 44 3 18 17 52 30 77 13 25 24 50 24 57 0 7 11 33 25 59 14 26 25 53 25 60
0 8 9 28 20 46 11 18 20 40 20 48 0 8 11 36 25 62 14 26 25 52 25 59 0 7 12
37 26 68 49 105 62 136 70 161 4 14 15 41 25 60 11 19 19 42 19 51 0 9 9 28
21 43 11 14 17 30 14 36 -4 6 -81 10 -201 10 -181 0 -195 -1 -214 -20 -11 -11
-20 -28 -20 -38 0 -9 -11 -38 -25 -64 -14 -26 -25 -54 -25 -62 0 -8 -11 -36
-25 -62 -14 -26 -25 -54 -25 -63 0 -9 -9 -29 -20 -46 -11 -16 -20 -37 -20 -46
0 -9 -11 -37 -25 -63 -14 -26 -25 -52 -25 -59 0 -7 -11 -33 -25 -59 -14 -26
-25 -55 -25 -65 0 -10 -9 -31 -20 -48 -11 -16 -20 -37 -20 -46 0 -9 -11 -37
-25 -63 -14 -26 -25 -52 -25 -59 0 -7 -11 -33 -25 -59 -14 -26 -25 -54 -25
-62 0 -8 -11 -36 -25 -62 -14 -26 -25 -54 -25 -63 0 -9 -9 -29 -20 -46 -11
-16 -20 -37 -20 -46 0 -9 -11 -37 -25 -63 -14 -26 -25 -52 -25 -59 0 -7 -12
-34 -25 -62 -14 -27 -25 -57 -25 -65 0 -8 -9 -28 -20 -45 -11 -16 -20 -37 -20
-46 0 -9 -11 -37 -25 -63 -14 -26 -25 -53 -25 -61 0 -8 -11 -35 -25 -61 -14
-26 -25 -53 -25 -61 0 -8 -11 -35 -25 -61 -14 -26 -25 -55 -25 -65 0 -11 -9
-30 -20 -44 -11 -14 -20 -35 -20 -47 0 -11 -8 -35 -19 -51 -10 -17 -24 -48
-31 -70 -7 -22 -21 -56 -31 -75 -11 -19 -19 -42 -19 -50 0 -8 -9 -28 -20 -45
-11 -16 -20 -37 -20 -46 0 -9 -11 -37 -25 -63 -14 -26 -25 -54 -25 -62 0 -8
-11 -36 -25 -62 -14 -26 -25 -53 -25 -60 0 -7 -11 -34 -25 -60 -14 -26 -25
-55 -25 -65 0 -11 -9 -30 -20 -44 -11 -14 -20 -35 -20 -47 0 -11 -9 -35 -19
-53 -11 -17 -25 -51 -31 -75 -7 -24 -18 -50 -25 -58 -7 -8 -18 -33 -24 -55 -6
-22 -17 -49 -25 -60 -9 -11 -16 -27 -16 -35 0 -8 -11 -37 -25 -65 -13 -27 -25
-56 -25 -63 0 -7 -11 -34 -25 -60 -14 -26 -25 -53 -25 -61 0 -7 -9 -30 -20
-50 -11 -20 -24 -54 -28 -76 -6 -30 -13 -41 -30 -43 -17 -3 -29 8 -52 44 -16
26 -30 55 -30 64 0 8 -11 36 -25 62 -14 26 -25 56 -25 66 0 11 -8 30 -19 43
-10 13 -22 40 -26 59 -4 19 -16 49 -26 66 -10 17 -19 38 -19 46 0 8 -11 36
-25 62 -14 26 -25 52 -25 59 0 7 -12 35 -25 62 -14 28 -25 57 -25 65 0 8 -9
29 -20 45 -11 17 -20 37 -20 46 0 9 -11 37 -25 63 -14 26 -25 52 -25 59 0 7
-11 33 -25 59 -14 26 -25 55 -25 65 0 10 -9 32 -20 48 -11 17 -20 37 -20 46 0
9 -11 37 -25 63 -14 26 -25 53 -25 60 0 7 -11 34 -25 60 -14 26 -25 52 -25 59
0 7 -12 35 -25 62 -14 28 -25 57 -25 65 0 8 -9 29 -20 45 -11 17 -20 37 -20
46 0 9 -11 37 -25 63 -14 26 -25 53 -25 60 0 7 -11 34 -25 60 -14 26 -25 55
-25 64 0 9 -9 31 -20 47 -11 17 -20 37 -20 46 0 9 -11 37 -25 63 -14 26 -25
53 -25 60 0 7 -11 34 -25 60 -14 26 -25 53 -25 61 0 8 -11 35 -25 61 -14 26
-25 54 -25 63 0 9 -9 31 -20 49 -11 18 -20 38 -20 46 0 7 -11 34 -25 60 -14
26 -25 53 -25 60 0 7 -11 34 -25 60 -14 26 -25 55 -25 64 0 9 -9 31 -20 47
-11 17 -20 37 -20 46 0 9 -11 37 -25 63 -14 26 -25 53 -25 60 0 7 -11 34 -25
60 -14 26 -25 53 -25 61 0 8 -11 35 -25 61 -14 26 -25 54 -25 63 0 9 -9 31
-20 49 -11 18 -20 38 -20 46 0 7 -11 34 -25 60 -14 26 -25 53 -25 60 0 7 -11
34 -25 60 -14 26 -25 54 -25 63 0 8 -9 32 -19 52 -11 20 -22 44 -25 54 -5 15
-24 17 -207 17 l-202 0 6 -36z"/>
<path d="M34580 5127 c-3 -3 -67 -10 -142 -16 -76 -6 -166 -20 -200 -30 -35
-11 -81 -22 -103 -26 -21 -4 -56 -15 -77 -26 -20 -10 -44 -19 -52 -19 -12 0
-64 -26 -171 -84 -48 -27 -135 -98 -188 -155 -67 -73 -113 -143 -157 -237 -17
-38 -38 -82 -45 -99 -25 -55 -64 -212 -97 -395 -23 -124 -23 -135 -23 -955 0
-820 0 -831 23 -955 58 -320 95 -428 200 -590 61 -93 181 -199 282 -248 14 -6
32 -16 40 -21 34 -21 150 -71 165 -71 8 0 32 -7 53 -16 20 -9 69 -22 107 -30
39 -8 99 -21 135 -29 139 -33 805 -29 894 5 16 6 63 17 105 25 122 23 197 50
351 125 112 55 137 69 185 104 48 35 171 160 188 192 6 12 27 50 46 84 36 64
65 137 83 205 5 22 19 76 30 120 16 62 22 127 27 290 4 122 3 215 -2 223 -8 9
-117 12 -511 10 l-501 -3 -2 -80 c-6 -165 -23 -310 -46 -375 -48 -139 -128
-218 -258 -256 -103 -30 -179 -30 -283 -2 -196 53 -270 157 -287 406 -11 172
-11 673 1 692 8 13 128 16 947 20 l938 5 0 495 c0 467 -1 503 -23 635 -26 163
-33 194 -60 295 -77 278 -183 442 -366 563 -47 31 -89 57 -93 57 -5 0 -28 11
-53 24 -25 13 -60 27 -78 31 -18 3 -45 13 -62 21 -16 8 -51 19 -77 23 -26 5
-75 16 -109 25 -33 9 -114 21 -180 27 -137 11 -547 24 -554 16z m378 -703 c98
-36 167 -102 219 -210 l37 -79 4 -307 c4 -302 4 -306 -17 -317 -15 -8 -143
-11 -431 -9 -352 3 -412 5 -420 18 -12 19 -12 432 0 565 22 252 151 363 425
364 95 1 120 -3 183 -25z"/>
<path d="M38755 5114 c-60 -7 -135 -22 -166 -34 -31 -11 -62 -20 -69 -20 -17
0 -135 -57 -175 -84 -74 -51 -140 -114 -200 -191 -36 -46 -65 -87 -65 -93 0
-5 -6 -15 -13 -21 -8 -6 -19 -29 -26 -50 -14 -49 -30 -60 -48 -36 -10 15 -13
70 -13 236 0 120 -3 224 -6 233 -5 14 -59 16 -504 16 -295 0 -501 -4 -505 -9
-3 -5 -5 -883 -5 -1951 0 -1068 2 -1946 5 -1951 4 -5 208 -9 499 -9 394 0 496
3 504 13 8 9 12 370 14 1213 3 1194 4 1199 26 1304 45 213 68 272 149 384 39
54 192 153 239 155 12 1 50 11 85 23 58 19 86 22 281 22 119 1 219 4 223 7 3
4 6 192 6 419 0 299 -3 416 -12 426 -14 17 -71 16 -224 -2z"/>
</g>
</svg>
